<svg width="42" height="23" viewBox="0 0 42 23" fill="none" xmlns="http://www.w3.org/2000/svg">
<path d="M22.6263 21.3136L22.612 21.3272L22.5983 21.3414C22.4004 21.5455 22.1572 21.7113 21.8827 21.8258C21.608 21.9402 21.3096 22 21.0066 22C20.7036 22 20.4052 21.9402 20.1305 21.8258C19.856 21.7113 19.6128 21.5455 19.4149 21.3414L19.4012 21.3272L19.3869 21.3136L1.63265 4.39113L1.63269 4.39109L1.62474 4.38367C1.42438 4.19682 1.26788 3.97674 1.16169 3.73762C1.05617 3.50001 1.00173 3.24685 1.00001 2.99221C1.00173 2.73756 1.05617 2.4844 1.16169 2.24679C1.26788 2.00768 1.42438 1.78759 1.62475 1.60076L1.62986 1.59593C2.02795 1.2194 2.57655 1 3.15806 1C3.73903 1 4.28715 1.219 4.68516 1.59489C4.68552 1.59524 4.68589 1.59559 4.68626 1.59593L20.2387 16.3936L20.9246 17.0462L21.6137 16.397L37.3255 1.59734L37.3269 1.59594C37.725 1.2194 38.2736 1 38.8551 1C39.4366 1 39.9852 1.2194 40.3833 1.59594L40.3842 1.59671C40.5828 1.78418 40.7376 2.00447 40.8423 2.24349C40.9469 2.48236 41 2.73667 41 2.99221C41 3.24774 40.9469 3.50205 40.8423 3.74093C40.7376 3.97994 40.5828 4.20024 40.3842 4.38771L40.3842 4.3877L40.3806 4.39113L22.6263 21.3136Z" fill="#EBEBEB" stroke="black" stroke-width="2"/>
</svg>
