<svg width="343" height="45" viewBox="0 0 343 45" fill="none" xmlns="http://www.w3.org/2000/svg">
<path d="M4.09766 3.98389V6.34745V41.5412H13.2658V26.782H41.0432V18.7186H13.2658V12.3365H45.5616V3.98389H4.09766Z" fill="#EBEBEB"/>
<mask id="mask0_665_737" style="mask-type:luminance" maskUnits="userSpaceOnUse" x="4" y="3" width="335" height="39">
<path d="M338.582 3.55225H4.0957V41.905H338.582V3.55225Z" fill="white"/>
</mask>
<g mask="url(#mask0_665_737)">
<path d="M142.756 41.543V28.7267C142.756 27.576 141.793 27.0931 141.793 27.0931C141.359 26.824 140.058 26.7749 138.143 26.7749H138.588H119.272V41.5423H110.102V6.34919V3.98877H138.726C143.669 4.00386 147.081 4.73009 149.431 7.01192C151.742 9.36479 152.049 12.4452 152.06 15.6463V18.3217C152.089 21.043 150.659 23.5254 148.955 24.9722L149.298 25.1426C149.992 25.479 150.375 25.9544 150.375 25.9544C151.672 27.615 151.656 29.0366 151.653 30.7916V41.5423L142.756 41.543ZM137.817 18.714C140.056 18.6983 141.397 18.7184 141.937 18.3883C141.937 18.3883 142.878 17.8683 142.89 16.751L142.892 14.295C142.892 13.1727 141.94 12.6577 141.94 12.6577C141.225 12.2691 140.013 12.3408 137.136 12.3389H119.272V18.714H138.227H137.817Z" fill="#EBEBEB"/>
</g>
<mask id="mask1_665_737" style="mask-type:luminance" maskUnits="userSpaceOnUse" x="4" y="3" width="335" height="39">
<path d="M338.582 3.55225H4.0957V41.905H338.582V3.55225Z" fill="white"/>
</mask>
<g mask="url(#mask1_665_737)">
<path d="M165.475 41.5429V12.3395H156.818V3.98682H191.237V12.3388H174.641V41.5423L165.475 41.5429Z" fill="#EBEBEB"/>
</g>
<mask id="mask2_665_737" style="mask-type:luminance" maskUnits="userSpaceOnUse" x="4" y="3" width="335" height="39">
<path d="M338.582 3.55225H4.0957V41.905H338.582V3.55225Z" fill="white"/>
</mask>
<g mask="url(#mask2_665_737)">
<path d="M310.375 41.5429V12.3395H301.721V3.98682H336.141V12.3388H319.544V41.5423L310.375 41.5429Z" fill="#EBEBEB"/>
</g>
<mask id="mask3_665_737" style="mask-type:luminance" maskUnits="userSpaceOnUse" x="4" y="3" width="335" height="39">
<path d="M338.582 3.55225H4.0957V41.905H338.582V3.55225Z" fill="white"/>
</mask>
<g mask="url(#mask3_665_737)">
<path d="M195.777 41.543V6.34919V3.98877H204.945V41.543H195.777Z" fill="#EBEBEB"/>
</g>
<mask id="mask4_665_737" style="mask-type:luminance" maskUnits="userSpaceOnUse" x="4" y="3" width="335" height="39">
<path d="M338.582 3.55225H4.0957V41.905H338.582V3.55225Z" fill="white"/>
</mask>
<g mask="url(#mask4_665_737)">
<path d="M260.227 41.543V6.34919V3.98877H297.19V12.3402L269.393 12.337V18.7203H288.708V26.785H269.393V33.191H297.375V41.543H260.227Z" fill="#EBEBEB"/>
</g>
<mask id="mask5_665_737" style="mask-type:luminance" maskUnits="userSpaceOnUse" x="4" y="3" width="335" height="39">
<path d="M338.582 3.55225H4.0957V41.905H338.582V3.55225Z" fill="white"/>
</mask>
<g mask="url(#mask5_665_737)">
<path d="M221.027 41.5517H211.818V3.97363L241.438 3.99753C241.438 3.99753 246.863 3.79506 250.313 7.20365C250.313 7.20365 253.833 10.1451 253.833 17.3301V41.5429H244.647V16.7032C244.647 16.7032 244.761 14.1698 243.9 13.2795C243.9 13.2795 243.136 12.3143 241.683 12.3143H221.01L221.027 41.5517Z" fill="#EBEBEB"/>
</g>
<mask id="mask6_665_737" style="mask-type:luminance" maskUnits="userSpaceOnUse" x="4" y="3" width="335" height="39">
<path d="M338.582 3.55225H4.0957V41.905H338.582V3.55225Z" fill="white"/>
</mask>
<g mask="url(#mask6_665_737)">
<path d="M334.044 41.5007C331.531 41.5007 329.502 39.4754 329.502 36.9628C329.489 34.4603 331.531 32.4199 334.044 32.4199C336.546 32.4199 338.587 34.4597 338.587 36.9628C338.586 39.476 336.546 41.49 334.044 41.5007ZM334.029 32.9475C331.819 32.9475 330.016 34.7502 330.033 36.9779C330.033 39.1874 331.82 40.9901 334.044 40.9788C336.257 40.9788 338.058 39.1868 338.058 36.9628C338.058 34.7502 336.256 32.9475 334.029 32.9475ZM332.346 34.3289H334.582C335.36 34.3289 336.109 34.476 336.174 35.6072C336.203 36.2517 336.004 36.4887 335.518 36.8572C336.031 37.1873 336.045 37.2634 336.125 38.133C336.174 38.7913 336.082 38.8969 336.362 39.3327H335.598L335.492 38.7014C335.387 38.1072 335.677 37.1873 334.638 37.1873H332.991V39.3327H332.347L332.346 34.3289ZM332.991 34.8979V36.6208H334.596C335.031 36.6208 335.45 36.5026 335.519 35.8568C335.609 35.0036 334.992 34.8979 334.596 34.8979H332.991Z" fill="#EBEBEB"/>
</g>
<mask id="mask7_665_737" style="mask-type:luminance" maskUnits="userSpaceOnUse" x="4" y="3" width="335" height="39">
<path d="M338.582 3.55225H4.0957V41.905H338.582V3.55225Z" fill="white"/>
</mask>
<g mask="url(#mask7_665_737)">
<path d="M64.8306 17.7261H49.6055V27.7343H64.8306V17.7261Z" fill="#E42313"/>
</g>
<mask id="mask8_665_737" style="mask-type:luminance" maskUnits="userSpaceOnUse" x="4" y="3" width="335" height="39">
<path d="M338.582 3.55225H4.0957V41.905H338.582V3.55225Z" fill="white"/>
</mask>
<g mask="url(#mask8_665_737)">
<path d="M83.9319 3.55225H68.9922V13.5598H83.9319V3.55225Z" fill="#E42313"/>
</g>
<mask id="mask9_665_737" style="mask-type:luminance" maskUnits="userSpaceOnUse" x="4" y="3" width="335" height="39">
<path d="M338.582 3.55225H4.0957V41.905H338.582V3.55225Z" fill="white"/>
</mask>
<g mask="url(#mask9_665_737)">
<path d="M83.9319 31.8984H68.9922V41.901H83.9319V31.8984Z" fill="#E42313"/>
</g>
<mask id="mask10_665_737" style="mask-type:luminance" maskUnits="userSpaceOnUse" x="4" y="3" width="335" height="39">
<path d="M338.582 3.55225H4.0957V41.905H338.582V3.55225Z" fill="white"/>
</mask>
<g mask="url(#mask10_665_737)">
<path d="M103.364 17.7261H88.0918V27.7343H103.364V17.7261Z" fill="#E42313"/>
</g>
<mask id="mask11_665_737" style="mask-type:luminance" maskUnits="userSpaceOnUse" x="4" y="3" width="335" height="39">
<path d="M338.582 3.55225H4.0957V41.905H338.582V3.55225Z" fill="white"/>
</mask>
<g mask="url(#mask11_665_737)">
<path d="M55.8581 3.55225C52.6885 4.386 50.1885 7.93418 49.6094 12.4406V13.5598H64.8358V3.55225H55.8581Z" fill="#E42313"/>
</g>
<mask id="mask12_665_737" style="mask-type:luminance" maskUnits="userSpaceOnUse" x="4" y="3" width="335" height="39">
<path d="M338.582 3.55225H4.0957V41.905H338.582V3.55225Z" fill="white"/>
</mask>
<g mask="url(#mask12_665_737)">
<path d="M49.6094 31.8984V33.1378C50.1614 37.453 52.4804 40.8893 55.4664 41.9016H64.8352V31.8984H49.6094Z" fill="#E42313"/>
</g>
<mask id="mask13_665_737" style="mask-type:luminance" maskUnits="userSpaceOnUse" x="4" y="3" width="335" height="39">
<path d="M338.582 3.55225H4.0957V41.905H338.582V3.55225Z" fill="white"/>
</mask>
<g mask="url(#mask13_665_737)">
<path d="M103.364 13.559V12.4303C102.779 7.9302 100.287 4.38454 97.1122 3.55078H88.0918V13.559H103.364Z" fill="#E42313"/>
</g>
<mask id="mask14_665_737" style="mask-type:luminance" maskUnits="userSpaceOnUse" x="4" y="3" width="335" height="39">
<path d="M338.582 3.55225H4.0957V41.905H338.582V3.55225Z" fill="white"/>
</mask>
<g mask="url(#mask14_665_737)">
<path d="M97.509 41.901C100.488 40.8893 102.806 37.4612 103.365 33.1472V31.8984H88.0938V41.901H97.509Z" fill="#E42313"/>
</g>
</svg>
