<svg width="60" height="35" viewBox="0 0 60 35" fill="none" xmlns="http://www.w3.org/2000/svg">
<path d="M4.53058 1.64287V1.33856H8.90348V1.64287H8.75092C8.58864 1.64287 8.44694 1.69845 8.32579 1.80962C8.20468 1.92197 8.09837 2.06408 8.00698 2.23599C7.91668 2.40905 7.84583 2.58669 7.79439 2.76895C7.74413 2.95232 7.71897 3.11508 7.71897 3.25723V20.2156C7.71897 20.8654 7.63786 21.4643 7.47557 22.0121C7.31443 22.56 7.09728 23.0723 6.82416 23.5491C6.54989 24.0259 6.24592 24.4626 5.91222 24.8592C5.57852 25.2546 5.2294 25.6145 4.86484 25.9388C4.03517 26.6907 3.08437 27.3205 2.01243 27.8283L1.85986 27.5841C2.5684 27.0764 3.19579 26.4775 3.74205 25.7875C4.20717 25.1984 4.64257 24.4781 5.04826 23.6265C5.4528 22.7737 5.65508 21.7892 5.65508 20.6729V3.25723C5.65508 3.11508 5.63453 2.95232 5.59336 2.76895C5.55337 2.58669 5.48768 2.40905 5.39624 2.23599C5.30595 2.06408 5.19968 1.92197 5.07738 1.80962C4.95628 1.69845 4.82485 1.64287 4.68316 1.64287H4.53058Z" fill="#FDFDFD"/>
<path d="M17.8892 21.1285H18.04V21.4328H13.6997V21.1285H13.8506C14.0129 21.1285 14.1546 21.0677 14.2757 20.9462C14.398 20.8247 14.5042 20.6826 14.5945 20.5199C14.686 20.3571 14.7516 20.1795 14.7916 19.9869C14.8328 19.7944 14.8534 19.6167 14.8534 19.4539V3.22628C14.8534 3.08413 14.8328 2.92137 14.7916 2.73801C14.7516 2.55579 14.686 2.38328 14.5945 2.22052C14.5042 2.0589 14.398 1.92197 14.2757 1.80962C14.1546 1.69845 14.0231 1.64287 13.8814 1.64287H13.7306V1.33856H18.0709V1.64287H17.9201C17.7578 1.64287 17.6161 1.69845 17.4949 1.80962C17.3727 1.92197 17.2664 2.0589 17.1761 2.22052C17.0847 2.38328 17.0138 2.55579 16.9635 2.73801C16.9121 2.92137 16.8864 3.08413 16.8864 3.22628V10.2905L24.5986 2.61764C24.7197 2.47553 24.7803 2.31277 24.7803 2.12941C24.7803 1.80504 24.6591 1.64287 24.4169 1.64287H24.2643V1.33856H27.9686V1.64287H27.8161C27.5327 1.64287 27.239 1.74428 26.935 1.94715C26.6322 2.15001 26.3287 2.40393 26.0248 2.7088L19.6497 9.0716L26.359 19.2717C26.3796 19.3118 26.4705 19.4339 26.6316 19.6379C26.7939 19.8408 26.9916 20.0534 27.2247 20.2757C27.4567 20.4993 27.7195 20.6975 28.0132 20.8706C28.307 21.0425 28.6058 21.1285 28.9098 21.1285V21.4328H28.1812C27.5733 21.4328 27.0619 21.3972 26.647 21.3262C26.2322 21.2551 25.8728 21.1388 25.5688 20.9772C25.266 20.8144 24.998 20.6116 24.7648 20.3686C24.5328 20.1244 24.2951 19.8196 24.0517 19.4539L18.1617 10.533L16.8864 11.843V19.4539C16.8864 19.6167 16.9121 19.7892 16.9635 19.9714C17.0138 20.1548 17.0795 20.3325 17.1607 20.5044C17.2418 20.6774 17.3429 20.8247 17.4641 20.9462C17.5852 21.0677 17.7269 21.1285 17.8892 21.1285Z" fill="#FDFDFD"/>
<path d="M0 30.0611V29.9906H1.00623C1.52963 29.9906 1.92733 30.0909 2.19931 30.2914C2.47015 30.4932 2.60557 30.7786 2.60557 31.1476C2.60557 31.3459 2.55815 31.5236 2.46329 31.6805C2.36959 31.8364 2.24617 31.9677 2.09303 32.0743C1.93876 32.1809 1.76619 32.2622 1.57535 32.3184C1.3845 32.3757 1.19479 32.4044 1.00623 32.4044H0.737105V34.2147C0.737105 34.2525 0.741674 34.2938 0.750818 34.3385C0.759962 34.3832 0.775386 34.4244 0.797097 34.4623C0.817671 34.5012 0.841099 34.5345 0.867384 34.562C0.893664 34.5906 0.925664 34.6049 0.963375 34.6049H0.997658V34.6755H0V34.6049H0.0359992C0.0691401 34.6049 0.0994243 34.5906 0.126851 34.562C0.155421 34.5345 0.179419 34.5012 0.198847 34.4623C0.217132 34.4244 0.231417 34.3832 0.241702 34.3385C0.250844 34.2938 0.255416 34.2525 0.255416 34.2147V30.4307C0.255416 30.3642 0.23656 30.288 0.198847 30.202C0.161135 30.1172 0.106852 30.0702 0.0359992 30.0611H0ZM0.834813 30.2382H0.737105V32.1551H0.949662C1.13822 32.1551 1.30679 32.1293 1.45535 32.0777C1.60391 32.025 1.72791 31.9562 1.82733 31.8714C1.92561 31.7866 2.00104 31.6898 2.05361 31.5809C2.10503 31.472 2.13074 31.3608 2.13074 31.2473C2.13074 31.1098 2.10846 30.9808 2.06389 30.8605C2.01932 30.739 1.94618 30.6324 1.84447 30.5407C1.74276 30.4479 1.60963 30.3745 1.44506 30.3207C1.27936 30.2657 1.07594 30.2382 0.834813 30.2382Z" fill="#FDFDFD"/>
<path d="M9.27378 34.6756V34.6051H9.30979C9.42291 34.6051 9.47947 34.553 9.47947 34.4487C9.47947 34.4109 9.47262 34.3707 9.45893 34.3283L8.82125 32.6022H7.58187L6.96647 34.3008C6.95278 34.3386 6.94593 34.3736 6.94593 34.4057C6.94593 34.4676 6.96246 34.5163 6.9956 34.5518C7.02874 34.5873 7.06421 34.6051 7.10192 34.6051H7.1362V34.6756H6.35107V34.6051H6.38536C6.44707 34.6051 6.50765 34.5684 6.56709 34.4951C6.62534 34.4217 6.67336 34.3352 6.71107 34.2355L8.33271 29.9048L9.9183 34.1942C9.95144 34.2882 9.99773 34.3805 10.0572 34.471C10.1155 34.5604 10.192 34.6051 10.2869 34.6051H10.3229V34.6756H9.27378ZM8.19901 30.8779L7.65386 32.3615H8.74411L8.19901 30.8779Z" fill="#FDFDFD"/>
<path d="M16.1426 34.6049H16.1769V34.6755H15.1792V34.6049H15.2152C15.2472 34.6049 15.2775 34.5906 15.3061 34.562C15.3346 34.5345 15.3597 34.5012 15.3815 34.4623C15.4021 34.4244 15.4169 34.3832 15.426 34.3385C15.4363 34.2938 15.4415 34.2525 15.4415 34.2147V30.4307C15.4415 30.3975 15.4363 30.3597 15.426 30.3172C15.4169 30.2737 15.4021 30.233 15.3815 30.1952C15.3597 30.1573 15.3346 30.1258 15.3061 30.1006C15.2775 30.0742 15.2472 30.0611 15.2152 30.0611H15.1792V29.9906H16.41C16.882 29.9906 17.2471 30.0829 17.5054 30.2674C17.7625 30.4519 17.891 30.7241 17.891 31.084C17.891 31.264 17.8613 31.421 17.8019 31.5551C17.7425 31.6903 17.6636 31.8066 17.5654 31.9041C17.466 32.0003 17.3488 32.0783 17.2139 32.1379C17.0802 32.1975 16.9374 32.241 16.7854 32.2685L17.2962 33.0508C17.4185 33.2399 17.5437 33.4256 17.6717 33.6078C17.7985 33.7901 17.9236 33.978 18.047 34.1717C18.079 34.2187 18.1156 34.2686 18.1568 34.3213C18.1968 34.3729 18.239 34.4198 18.2836 34.4623C18.3282 34.5058 18.375 34.5402 18.4242 34.5654C18.4744 34.5918 18.5253 34.6049 18.5767 34.6049V34.6755H18.2733C18.0836 34.6755 17.9287 34.6296 17.8088 34.5379C17.6888 34.4451 17.5888 34.3373 17.5088 34.2147C17.2962 33.9018 17.0848 33.5849 16.8745 33.264C16.6643 32.9419 16.4557 32.6244 16.2489 32.3115C16.1963 32.307 16.1403 32.3012 16.0809 32.2943C16.0226 32.2874 15.9672 32.2788 15.9146 32.2685V34.2147C15.9146 34.2525 15.9197 34.2938 15.93 34.3385C15.9392 34.3832 15.9546 34.4244 15.9763 34.4623C15.9969 34.5012 16.0203 34.5345 16.0466 34.562C16.0729 34.5906 16.1049 34.6049 16.1426 34.6049ZM16.0209 30.2313H15.9146V32.0347H15.9506C15.9883 32.0393 16.0483 32.0427 16.1306 32.045C16.214 32.0473 16.3169 32.0485 16.4391 32.0485C16.5385 32.0485 16.6437 32.033 16.7546 32.0021C16.8654 31.9723 16.9694 31.9207 17.0665 31.8473C17.1625 31.774 17.2425 31.6777 17.3065 31.5585C17.3705 31.4405 17.4025 31.2914 17.4025 31.1115C17.4025 30.9316 17.3682 30.7848 17.2997 30.6714C17.2311 30.5579 17.1368 30.4679 17.0168 30.4015C16.8957 30.335 16.7505 30.2903 16.5814 30.2674C16.4111 30.2433 16.2243 30.2313 16.0209 30.2313Z" fill="#FDFDFD"/>
<path d="M25.2242 34.6049H25.2602V34.6755H24.2557V34.6049H24.29C24.3277 34.6049 24.3609 34.5906 24.3894 34.562C24.418 34.5345 24.4425 34.5012 24.4631 34.4623C24.4849 34.4244 24.5003 34.3832 24.5094 34.3385C24.5185 34.2938 24.5231 34.2525 24.5231 34.2147V30.2519H23.702C23.6266 30.2519 23.5609 30.2685 23.5049 30.3017C23.4478 30.335 23.4003 30.3768 23.3626 30.4273C23.3249 30.4765 23.2969 30.531 23.2786 30.5906C23.2592 30.6491 23.2495 30.7069 23.2495 30.7642H23.1792V29.9906H26.3573V30.7642H26.2871C26.2871 30.7069 26.2773 30.6491 26.2579 30.5906C26.2396 30.531 26.2116 30.4765 26.1739 30.4273C26.1362 30.3768 26.0888 30.335 26.0316 30.3017C25.9756 30.2685 25.9099 30.2519 25.8345 30.2519H24.998V34.2147C24.998 34.2525 25.0025 34.2938 25.0117 34.3385C25.022 34.3832 25.0374 34.4244 25.0579 34.4623C25.0797 34.5012 25.1037 34.5345 25.13 34.562C25.1551 34.5906 25.1865 34.6049 25.2242 34.6049Z" fill="#FDFDFD"/>
<path d="M31.9218 34.6049H31.9577V34.6755H31.1727V34.6049H31.2069C31.2401 34.6049 31.2721 34.5906 31.3029 34.562C31.3338 34.5345 31.3584 34.5012 31.3767 34.4623C31.3961 34.4244 31.4115 34.3832 31.4229 34.3385C31.4344 34.2938 31.4401 34.2525 31.4401 34.2147V30.4307C31.4401 30.3975 31.4366 30.3597 31.4298 30.3172C31.4229 30.2737 31.4104 30.233 31.392 30.1952C31.3726 30.1573 31.3464 30.1258 31.3132 30.1006C31.2801 30.0742 31.2401 30.0611 31.1932 30.0611H31.1572V29.9906H31.872L34.4433 34.0514V30.4307C34.4433 30.3975 34.437 30.3597 34.4245 30.3172C34.413 30.2737 34.3965 30.233 34.3748 30.1952C34.3542 30.1573 34.3296 30.1258 34.301 30.1006C34.2725 30.0742 34.2393 30.0611 34.2016 30.0611H34.1673V29.9906H34.9593V30.0611H34.9233C34.8856 30.0611 34.853 30.0742 34.8256 30.1006C34.797 30.1258 34.7719 30.1573 34.7502 30.1952C34.7296 30.233 34.7142 30.2737 34.7039 30.3172C34.6947 30.3597 34.6902 30.3975 34.6902 30.4307V34.6755H34.2513L31.6886 30.6009V34.2147C31.6886 34.2525 31.6932 34.2938 31.7023 34.3385C31.7126 34.3832 31.7281 34.4244 31.7486 34.4623C31.7703 34.5012 31.7955 34.5345 31.824 34.562C31.8515 34.5906 31.8841 34.6049 31.9218 34.6049Z" fill="#FDFDFD"/>
<path d="M40.0571 34.6755V34.6049H40.0914C40.1291 34.6049 40.1623 34.5918 40.1908 34.5654C40.2194 34.5402 40.2445 34.5087 40.2662 34.4708C40.2868 34.433 40.3028 34.3923 40.3142 34.3488C40.3268 34.3064 40.3331 34.2663 40.3331 34.2285V30.4307C40.3331 30.3975 40.3268 30.3597 40.3142 30.3172C40.3028 30.2737 40.2868 30.233 40.2662 30.1952C40.2445 30.1573 40.2194 30.1258 40.1908 30.1006C40.1623 30.0742 40.1291 30.0611 40.0914 30.0611H40.0571V29.9906H42.7827V30.6507H42.7107C42.7015 30.5419 42.6593 30.4456 42.5838 30.3619C42.5084 30.2794 42.3907 30.2382 42.2307 30.2382H40.8062V32.0347H41.9822C42.0907 32.0347 42.1816 32.0015 42.2547 31.935C42.3279 31.8685 42.3644 31.7906 42.3644 31.7012H42.4347V32.5883H42.3644C42.3644 32.5035 42.329 32.4302 42.2582 32.3683C42.1873 32.3064 42.0953 32.2754 41.9822 32.2754H40.8062V34.4279H42.3576C42.4467 34.4279 42.5244 34.4067 42.5907 34.3643C42.657 34.3219 42.7124 34.2709 42.757 34.2113C42.8027 34.1516 42.8358 34.0875 42.8564 34.0187C42.8781 33.9499 42.889 33.8921 42.889 33.8451H42.9592V34.6755H40.0571Z" fill="#FDFDFD"/>
<path d="M48.8856 34.6049H48.9198V34.6755H47.9224V34.6049H47.958C47.9913 34.6049 48.0214 34.5906 48.0488 34.562C48.0776 34.5345 48.1027 34.5012 48.1246 34.4623C48.1451 34.4244 48.1602 34.3832 48.1707 34.3385C48.1798 34.2938 48.1844 34.2525 48.1844 34.2147V30.4307C48.1844 30.3975 48.1798 30.3597 48.1707 30.3172C48.1602 30.2737 48.1451 30.233 48.1246 30.1952C48.1027 30.1573 48.0776 30.1258 48.0488 30.1006C48.0214 30.0742 47.9913 30.0611 47.958 30.0611H47.9224V29.9906H49.1544C49.6265 29.9906 49.9912 30.0829 50.2482 30.2674C50.5052 30.4519 50.6339 30.7241 50.6339 31.084C50.6339 31.264 50.6043 31.421 50.5449 31.5551C50.4865 31.6903 50.4075 31.8066 50.3085 31.9041C50.2089 32.0003 50.0925 32.0783 49.9588 32.1379C49.8237 32.1975 49.6808 32.241 49.5301 32.2685L50.0391 33.0508C50.1615 33.2399 50.2865 33.4256 50.4144 33.6078C50.5413 33.7901 50.6663 33.978 50.7901 34.1717C50.8229 34.2187 50.8599 34.2686 50.8996 34.3213C50.9398 34.3729 50.9818 34.4198 51.0265 34.4623C51.0713 34.5058 51.1187 34.5402 51.1689 34.5654C51.2178 34.5918 51.2689 34.6049 51.3214 34.6049V34.6755H51.0165C50.8275 34.6755 50.6727 34.6296 50.5518 34.5379C50.4317 34.4451 50.3317 34.3373 50.2519 34.2147C50.0391 33.9018 49.8278 33.5849 49.6173 33.264C49.4073 32.9419 49.1987 32.6244 48.9919 32.3115C48.9394 32.307 48.8837 32.3012 48.8253 32.2943C48.766 32.2874 48.7107 32.2788 48.6591 32.2685V34.2147C48.6591 34.2525 48.6637 34.2938 48.6728 34.3385C48.682 34.3832 48.6975 34.4244 48.7194 34.4623C48.7399 34.5012 48.7632 34.5345 48.7897 34.562C48.8157 34.5906 48.8477 34.6049 48.8856 34.6049ZM48.7655 30.2313H48.6591V32.0347H48.6934C48.7313 32.0393 48.792 32.0427 48.8751 32.045C48.9577 32.0473 49.0599 32.0485 49.1823 32.0485C49.2813 32.0485 49.3868 32.033 49.4973 32.0021C49.6082 31.9723 49.7123 31.9207 49.8095 31.8473C49.9054 31.774 49.9853 31.6777 50.0496 31.5585C50.1135 31.4405 50.1455 31.2914 50.1455 31.1115C50.1455 30.9316 50.1113 30.7848 50.0428 30.6714C49.9738 30.5579 49.8798 30.4679 49.7598 30.4015C49.6397 30.335 49.4945 30.2903 49.3243 30.2674C49.154 30.2433 48.9677 30.2313 48.7655 30.2313Z" fill="#FDFDFD"/>
<path d="M59.044 33.4189C59.044 33.6562 58.997 33.859 58.9034 34.0275C58.8085 34.1949 58.6866 34.3307 58.5382 34.435C58.3899 34.5393 58.2223 34.6149 58.0361 34.6619C57.8498 34.7089 57.6645 34.7324 57.4805 34.7324C57.2911 34.7324 57.1281 34.7135 56.9921 34.6757C56.8547 34.6379 56.7296 34.6023 56.6169 34.5691C56.5411 34.5462 56.4726 34.5261 56.411 34.5089C56.3493 34.4929 56.2882 34.4849 56.2275 34.4849V33.6751H56.2978C56.2978 33.855 56.3434 33.9983 56.4347 34.1049C56.5274 34.2115 56.6351 34.2928 56.757 34.349C56.8807 34.4063 57.0035 34.443 57.1258 34.459C57.2491 34.4762 57.339 34.4849 57.3947 34.4849C57.5983 34.4849 57.7732 34.4551 57.9192 34.3954C58.0658 34.337 58.1858 34.2591 58.2794 34.1616C58.3744 34.0642 58.4437 33.9565 58.4885 33.8384C58.5332 33.7204 58.5556 33.5995 58.5556 33.4757C58.5556 33.3198 58.5227 33.1885 58.4579 33.082C58.3912 32.9754 58.305 32.8819 58.1986 32.8017C58.0927 32.7215 57.9708 32.6527 57.8339 32.5954C57.6965 32.5393 57.5572 32.4825 57.4153 32.4252C57.2555 32.3633 57.0975 32.2997 56.9423 32.2344C56.7858 32.1679 56.6465 32.086 56.5242 31.9885C56.4018 31.8922 56.3028 31.7765 56.2275 31.6413C56.1521 31.506 56.1143 31.3392 56.1143 31.1409C56.1143 30.9324 56.1544 30.7513 56.2343 30.5977C56.3142 30.4429 56.4219 30.3163 56.5566 30.2177C56.6904 30.118 56.8433 30.0435 57.0158 29.9943C57.1884 29.9438 57.3646 29.9186 57.544 29.9186C57.6663 29.9186 57.7818 29.9272 57.8905 29.9444C57.9987 29.9604 58.1027 29.9805 58.2023 30.0046C58.2821 30.0229 58.3597 30.0383 58.4355 30.051C58.5108 30.0624 58.5839 30.0682 58.6546 30.0682V30.7989H58.5843C58.5752 30.5535 58.4789 30.3868 58.2949 30.2985C58.111 30.2115 57.8558 30.1679 57.5303 30.1679C57.3404 30.1679 57.1856 30.2 57.0656 30.2641C56.9455 30.3272 56.8501 30.4051 56.7794 30.498C56.7086 30.5897 56.6602 30.6888 56.6337 30.7954C56.6073 30.902 56.5945 30.9954 56.5945 31.0756C56.5945 31.2086 56.6242 31.3226 56.6835 31.4178C56.7428 31.5117 56.8218 31.5942 56.92 31.6653C57.0195 31.7364 57.1345 31.8005 57.2646 31.8579C57.3938 31.914 57.5289 31.9685 57.6709 32.0212C57.832 32.0819 57.995 32.1479 58.1593 32.2189C58.3251 32.29 58.4725 32.3776 58.6017 32.4819C58.7318 32.5862 58.8382 32.7141 58.9203 32.8653C59.0029 33.0166 59.044 33.2011 59.044 33.4189Z" fill="#FDFDFD"/>
<path d="M60.0032 12.6835C60.0402 13.0158 59.7412 12.8907 59.5869 12.7557L60.0032 12.6835ZM38.5077 8.6087L38.468 8.4513C38.4332 8.36632 38.4285 7.87177 38.6949 8.1592L38.5077 8.6087ZM55.0598 5.08899C54.9726 5.29872 54.7134 5.33099 54.5143 5.38831C54.4897 5.02612 54.8654 5.21873 55.0598 5.08899ZM44.5881 14.1459C44.6504 13.996 44.7453 13.6839 44.8871 13.8489C44.9991 14.0013 44.7499 14.1785 44.5881 14.1459ZM38.9768 7.3976C39.1062 7.5925 38.899 8.17435 38.7523 7.93692C38.5632 7.71698 38.8248 7.50986 38.9768 7.3976ZM55.0598 5.08899C55.152 4.95164 55.1845 4.78933 55.0603 4.66682L54.4577 4.34419C54.3632 4.23421 54.3062 4.03433 54.224 3.89437C54.1742 4.01423 54.1464 4.249 54.0222 4.12653C53.9277 4.01656 53.8551 4.02151 53.8825 4.20885L53.6388 4.03634C53.2658 3.24672 52.0506 2.87867 51.0194 2.65808C49.5755 2.33481 48.1161 2.21632 46.8681 2.43269C45.1618 2.73866 43.6693 3.62681 42.142 4.42998L40.5326 5.09324C40.0717 5.35764 39.902 5.84958 39.665 6.41894C39.5901 6.59873 39.0444 6.89806 38.8501 7.02781C38.9774 6.55331 39.2443 5.9965 39.4439 5.51706L39.2922 5.2072C39.6068 4.28325 40.13 3.869 40.6012 3.3273C42.0319 1.74471 43.7062 0.756827 45.7985 0.788349C46.2518 0.626322 46.6654 0.306907 47.1091 0C48.0052 0.375339 48.9168 0.545863 49.8033 0.354187C50.4579 0.804281 51.6882 0.967548 52.5473 1.01065C53.899 1.89337 55.4031 2.66381 56.2015 3.52618C56.4681 3.8136 57.0483 3.59925 57.3199 3.53698C57.8632 3.4125 58.4529 3.76512 58.4151 4.27716C58.4224 4.59686 57.9864 4.80138 58.1133 5.17117C58.153 5.32857 58.2526 5.51097 58.4566 5.52612C58.4817 5.46619 58.5219 5.20143 58.646 5.3239C58.925 5.58138 58.1403 5.78063 58.6155 6.15569C58.7976 6.05588 58.6757 5.75856 58.8227 5.57383C59.2587 5.79148 59.5645 6.23631 59.4796 6.69336C59.4221 6.91559 59.2577 7.05789 59.0332 7.17509C59.349 8.18695 59.318 9.44085 59.0907 10.5772C59.0706 10.7095 59.0505 10.842 59.0902 10.9993C59.3687 11.679 59.3755 12.4208 59.4896 13.2427C59.7115 12.8782 59.8804 13.2305 59.848 13.3928C59.8033 13.5851 59.7631 13.8499 59.5937 13.9197C59.8548 14.1347 60.0164 14.5894 59.974 15.029C59.916 15.6734 59.4823 16.1252 59.1487 16.3373C58.3607 17.5556 57.314 18.3841 56.3471 19.1053C55.9705 20.1791 55.2429 20.5782 54.5577 20.9598C53.5511 21.5236 52.3779 21.5602 51.4933 22.4213C50.7834 22.4408 50.0261 22.4053 49.361 22.6545C49.1916 22.7244 49.0825 22.3971 49.2943 22.3098C49.3788 22.2749 49.3044 22.0325 49.14 22.1748C48.4521 22.7313 47.341 23.0402 46.3728 22.2477C46.0345 21.9652 46.6024 21.7808 46.3111 21.5532C46.8639 21.5736 47.4291 21.564 47.9723 21.4396C47.6487 21.3744 47.2702 21.3566 46.979 21.1291C46.9913 21.0991 46.994 20.9243 46.8247 20.9941C46.5827 21.0688 46.6631 20.5394 46.4435 20.729L46.1422 20.7788C45.5621 20.571 45.0269 20.171 44.4192 20.198C44.434 20.4153 44.2942 20.9198 44.4038 20.825C44.5755 21.0024 44.8645 20.9826 44.9091 21.2125C44.9488 21.3699 44.7794 21.4397 44.6524 21.4921C44.7272 21.3123 44.5778 21.2497 44.503 21.4295C44.4281 21.6093 44.1767 21.5392 44.0745 21.5316C43.3772 21.5211 42.471 21.0009 41.8709 20.9255L41.7914 20.6107C41.3705 20.6104 41.425 20.9851 41.0888 20.9499C41.2359 20.7652 41.5001 20.3832 41.1814 20.3904C40.9647 20.4053 40.942 20.7125 40.6705 20.7747C40.5586 20.6223 40.768 20.2877 40.6984 20.1178C40.5464 20.2301 40.4591 20.4399 40.2847 20.4372C40.1104 20.4346 40.1629 20.1399 40.2726 20.0451C40.5217 19.8679 40.1807 19.7603 40.0486 19.7402C39.8099 19.2179 39.6385 18.6184 39.1208 18.2608C38.757 18.4603 38.4231 18.6724 38.0692 19.0168C38.1194 18.4748 38.7074 18.158 39.1434 17.9535C38.5392 16.5393 37.8878 15.0701 37.7095 13.7287L38.1946 11.0463C38.0452 10.9838 37.9155 11.211 37.7711 11.2209C37.8065 10.4615 38.1407 9.82735 38.6867 9.1059L38.3814 11.019L38.6402 11.4088C38.9865 11.1668 39.1263 10.6623 39.5102 10.3304C39.9606 10.7654 40.1021 11.3525 40.311 11.8622C40.485 12.287 40.6167 12.7292 40.858 13.0765C40.8928 13.1615 41.3436 13.1743 41.5353 13.2194C41.2461 13.6613 41.2806 14.1684 41.5495 14.281C41.584 14.7881 41.8726 15.1905 41.8299 15.63C42.039 15.7176 42.2958 15.4381 42.4652 15.3683C42.9012 15.1637 43.2975 14.8019 43.741 14.4949C43.7958 14.4475 43.9255 14.2203 44.1619 14.4953C43.4941 14.9194 42.8138 15.3735 42.3201 16.2224C42.2827 16.3123 42.417 16.5797 42.6586 16.5049C42.9974 16.3653 43.3189 16.1832 43.5631 15.9336C44.0516 15.4344 44.657 15.16 45.1058 14.5035C45.1954 14.541 45.3123 14.7659 45.1603 14.8781C44.7591 15.1676 44.2782 15.5644 44.0884 16.1887C44.3274 16.2888 44.5714 16.4614 44.4965 16.6412C44.4141 16.9233 44.4637 17.2256 44.4834 17.5154C44.6404 17.4755 44.7527 17.2059 44.9194 17.3109C45.1036 17.4584 44.5754 17.8002 44.7271 18.1101C44.8266 18.2925 44.8414 18.5098 44.8213 18.6422C45.0108 18.44 44.8161 18.9919 45.1575 18.6774C45.3893 18.4577 45.1175 18.9421 44.8584 18.9744C45.2442 19.3119 45.7592 19.8443 46.2075 20.032C46.4467 20.1321 47.0885 20.6121 47.3702 20.6948C47.5318 20.7274 47.2657 20.4399 47.383 20.2426C47.6792 20.5426 48.0125 20.7527 48.5731 20.6707C49.6467 20.4516 50.9267 20.495 51.9036 19.9188C52.1401 19.7716 52.4711 20.1565 52.713 20.0818C53.8739 19.653 54.9051 19.0293 56.0239 18.1958C56.3832 17.5017 56.8644 16.6828 57.256 15.8263C57.4058 15.4667 57.4733 14.9672 57.5783 14.7999C58.0421 13.9385 58.3192 13.1044 58.4616 12.4251C58.2877 12.0004 58.2955 11.4758 58.4105 11.0313C58.211 11.0886 58.0818 10.8937 58.1142 10.7313C58.2941 9.96214 58.1302 9.26015 57.6796 8.82516C57.0757 7.41097 56.1175 6.34115 55.3237 5.12914L55.0598 5.08899Z" fill="white"/>
<path d="M48.8277 0.596802C42.9847 0.596802 38.2427 5.35275 38.2427 11.2129C38.2427 17.0731 42.9847 21.8291 48.8277 21.8291C54.6708 21.8291 59.4129 17.0731 59.4129 11.2129C59.4129 5.35275 54.6708 0.596802 48.8277 0.596802ZM48.8277 1.09057C54.4047 1.09057 58.9208 5.61962 58.9208 11.2129C58.9208 16.8063 54.4047 21.3354 48.8277 21.3354C43.2508 21.3354 38.735 16.8063 38.735 11.2129C38.735 5.61962 43.2508 1.09057 48.8277 1.09057Z" fill="white"/>
</svg>
