<svg width="53" height="42" viewBox="0 0 53 42" fill="none" xmlns="http://www.w3.org/2000/svg">
<path d="M43.6926 5.68275L44.833 4.5424H43.2203H8.88373H7.27104L8.41138 5.68275L23.728 20.9994C23.7284 20.9997 23.7287 21 23.729 21.0004C24.0331 21.3067 24.3948 21.5499 24.7932 21.7159C25.1921 21.882 25.6199 21.9676 26.052 21.9676C26.4841 21.9676 26.9119 21.882 27.3108 21.7159C27.7092 21.5499 28.0709 21.3067 28.375 21.0004C28.3753 21 28.3756 20.9997 28.376 20.9994L43.6926 5.68275ZM5.68275 8.41139L4.5424 7.27104V8.88373V33.8676C4.5424 34.7357 4.88725 35.5683 5.5011 36.1821C6.11494 36.796 6.9475 37.1408 7.8156 37.1408H44.2884C45.1565 37.1408 45.9891 36.796 46.6029 36.1821C47.2167 35.5683 47.5616 34.7357 47.5616 33.8676V8.88373V7.27104L46.4213 8.41139L31.103 23.7297C29.7628 25.0682 27.9461 25.82 26.052 25.82C24.1579 25.82 22.3412 25.0682 21.001 23.7297L5.68275 8.41139ZM7.8156 0.668H44.2884C46.1841 0.668 48.0021 1.42105 49.3425 2.76148C50.683 4.10192 51.436 5.91994 51.436 7.8156V33.8676C51.436 35.7633 50.683 37.5813 49.3425 38.9217C48.0021 40.2622 46.1841 41.0152 44.2884 41.0152H7.8156C5.91994 41.0152 4.10192 40.2622 2.76148 38.9217C1.42105 37.5813 0.668 35.7633 0.668 33.8676V7.8156C0.668 5.91994 1.42105 4.10192 2.76148 2.76148C4.10192 1.42105 5.91994 0.668 7.8156 0.668Z" fill="#EBEBEB" stroke="black" stroke-width="1.336"/>
</svg>
