<svg width="423" height="82" viewBox="0 0 423 82" fill="none" xmlns="http://www.w3.org/2000/svg">
<path d="M37.7352 23.6946L33.2836 31.5611L28.832 23.6946L33.2836 15.8281L37.7352 23.6946Z" fill="white"/>
<path d="M39.8809 64.7975C44.4858 60.6852 49.5129 57.0667 54.8791 54.0018C62.8569 49.3185 66.5586 42.8887 66.5586 35.9986C62.8569 42.9046 59.1473 47.2467 53.4671 51.5093C48.2511 55.2491 43.3109 59.3556 38.6843 63.7973L32.3021 70.1476C29.0636 73.4174 26.0392 76.8914 23.2473 80.5464C23.9002 80.9794 24.5796 81.3724 25.2816 81.7214C27.6791 78.0884 30.3457 74.6394 33.2594 71.4018C33.6982 70.9097 39.3704 65.2658 39.865 64.8292M37.0967 62.4478C46.4626 54.1447 50.2441 50.7155 52.0072 48.9533C59.8812 41.1265 66.5427 32.0376 66.5427 23.7027C66.5427 19.0352 64.2929 13.9073 62.5538 12.1609C62.7628 13.3748 62.8642 14.6047 62.8569 15.8362C62.8569 23.7027 62.8569 31.7121 50.4435 46.1592C48.7123 48.1833 44.7554 52.4143 35.924 61.3603C34.9108 62.3923 30.8501 66.4327 29.821 67.4408C25.2497 71.9024 21.907 75.1084 19.4499 77.4184C20.0337 78.0604 20.6629 78.6604 21.3326 79.2124C23.4786 76.8314 26.5102 73.5134 30.9059 68.6235C31.8872 67.5281 36.0197 63.4163 37.1126 62.4399M48.9357 43.4999C57.2166 31.6724 59.1473 23.6948 59.1473 15.8283C59.1473 6.3027 53.5628 0.00799942 51.5923 0.00799942C53.1879 4.5326 53.9059 10.2876 53.9059 15.8283C53.917 24.4324 51.5638 32.8758 47.1008 40.2454C43.2545 46.961 38.607 53.1898 33.2594 58.7964C32.2542 59.8045 28.2414 63.8052 27.2202 64.8054C23.9475 67.9682 20.4113 70.8494 16.6497 73.4184C17.0471 74.1924 17.5031 74.9354 18.0139 75.6404C21.6198 72.6084 25.0742 69.2903 28.385 65.9485C29.3822 64.9324 33.411 60.9237 34.4321 59.9315C39.7676 54.913 44.6229 49.4122 48.9357 43.4999ZM33.2594 71.3701C36.173 74.6074 38.8397 78.0564 41.2372 81.6894C41.941 81.3504 42.6231 80.9694 43.2795 80.5464C40.4876 76.8914 37.4631 73.4174 34.2247 70.1476L27.8425 63.7973C23.2287 59.3569 18.3019 55.2505 13.0995 51.5093C7.4114 47.2467 3.7416 42.9046 0 35.9986C0 42.9046 3.7097 49.3185 11.6795 54.0018C17.0498 57.0643 22.0798 60.683 26.6857 64.7975C27.1803 65.234 32.8445 70.8779 33.2913 71.3701M35.6846 68.6156C40.0644 73.5054 43.096 76.8634 45.258 79.2044C45.9302 78.6524 46.5621 78.0524 47.1487 77.4104C44.6995 75.1014 41.3568 71.8944 36.7776 67.4328C35.7484 66.4247 31.6798 62.3843 30.6666 61.3524C21.8432 52.4063 17.9022 48.1754 16.155 46.1512C3.7416 31.6804 3.7416 23.6948 3.7416 15.8283C3.7343 14.5967 3.8357 13.3669 4.0448 12.153C2.2897 13.8994 0.0558987 19.0273 0.0558987 23.6948C0.0558987 32.0296 6.7253 41.1186 14.5994 48.9454C16.3625 50.6997 20.1838 54.1289 29.5018 62.4399C30.6028 63.4163 34.7353 67.5281 35.7165 68.6235M32.1345 59.9315C33.1557 60.9237 37.1765 64.9324 38.1817 65.9485C41.4685 69.2983 44.9149 72.6084 48.5528 75.6404C49.0578 74.9314 49.5136 74.1894 49.917 73.4184C46.147 70.8505 42.6028 67.9693 39.3225 64.8054C38.3013 63.8052 34.2805 59.8045 33.2833 58.7964C27.9441 53.1884 23.3047 46.9597 19.4658 40.2454C14.998 32.875 12.6445 24.4276 12.6608 15.8203C12.6608 10.2638 13.3867 4.5246 14.9743 0C12.9719 0 7.4114 6.3027 7.4114 15.8203C7.4114 23.6868 9.342 31.6962 17.6309 43.492C21.9437 49.4042 26.7991 54.905 32.1345 59.9236" fill="white"/>
<path d="M106.847 40.2462L105.89 39.8334C102.148 38.2458 98.9168 36.8408 98.9168 33.102C98.9168 29.1966 101.925 26.5691 106.417 26.5691C109.44 26.5691 111.283 27.3629 112.966 29.3791L113.118 29.5458V29.3236C113.222 28.2942 113.222 27.2571 113.118 26.2278V26.1643H113.054C110.899 25.5236 108.665 25.1869 106.417 25.1641C98.3428 25.1641 94.6888 29.6649 94.6888 33.8958C94.6888 38.4125 97.3698 41.8338 102.667 44.2152C103.305 44.5009 103.967 44.755 104.669 45.009C108.419 46.4934 112.304 48.0254 112.304 52.2722C112.254 54.2135 111.432 56.0557 110.019 57.3949C108.606 58.7342 106.716 59.4611 104.765 59.4163C101.042 59.3591 97.4858 57.8649 94.8488 55.2489L94.7048 55.114V55.3124C94.6348 56.4677 94.6348 57.6261 94.7048 58.7813V58.8289C96.4198 59.8132 100.186 60.8055 104.741 60.8055C113.437 60.8055 116.524 55.6141 116.524 51.1688C116.524 45.0328 111.53 42.3418 106.855 40.3018" fill="white"/>
<path d="M136.915 25.1628C133.019 25.0692 129.122 25.335 125.275 25.9566H125.195V26.2345C125.769 29.2617 126.036 32.3384 125.993 35.4187V59.7485C125.993 59.7485 128.65 59.685 130.947 59.7485C132.471 59.7485 134.362 59.7485 137.066 59.7485C146.64 59.7485 155.312 51.9931 155.312 42.4676C155.331 40.2118 154.901 37.9746 154.045 35.8857C153.189 33.7968 151.925 31.8978 150.325 30.2987C148.539 28.6079 146.435 27.284 144.134 26.4028C141.833 25.5215 139.38 25.1002 136.915 25.1628ZM130.134 27.06C131.772 26.6985 133.45 26.5412 135.128 26.5917C144.701 26.5917 150.9 32.8388 150.9 42.4676C150.9 51.62 145.244 58.018 137.13 58.0656H130.421V35.4345C130.421 29.9574 130.182 27.4966 130.134 27.0441" fill="white"/>
<path d="M186.768 46.5958C186.768 51.1125 186.13 54.2956 184.814 56.3198C183.497 58.344 181.359 59.368 178.344 59.368C171.658 59.368 168.683 55.399 168.683 46.5958V35.4827C168.671 32.404 168.5 29.328 168.172 26.2667V26.1873H163.449V26.3064C163.449 26.3064 164.247 29.3228 164.247 35.4827V46.5958C164.247 56.0102 168.786 60.7888 177.738 60.7888C186.912 60.7888 191.18 56.2801 191.18 46.5958V26.1318H186.768V46.5958Z" fill="white"/>
<path d="M238.601 46.5954C238.601 55.3272 235.593 59.5184 229.426 59.5184C222.414 59.5184 219.007 55.2875 219.007 46.5954V35.4823C218.996 32.401 218.826 29.3223 218.497 26.2584V26.0838H214.412L214.476 26.3298C214.476 26.3298 215.274 29.3304 215.274 35.4823V46.5954C215.274 56.0733 219.845 60.8837 228.836 60.8837C238.074 60.8837 242.398 56.3432 242.398 46.5954V26.0361H238.641L238.601 46.5954Z" fill="white"/>
<path d="M269.06 54.3117V42.9525C269.06 38.0786 264.991 34.2207 259.79 34.2207C258.395 34.23 257.018 34.5374 255.753 35.1222C254.489 35.707 253.365 36.5555 252.458 37.6102V34.7526H252.267C250.591 34.7526 248.086 34.9828 248.062 34.9828H247.887V35.4829L247.959 35.5464C247.959 35.5464 248.693 36.3957 248.693 42.3015V59.8285H252.466V39.6741C254.006 37.1022 256.351 35.6257 258.896 35.6257C263.204 35.6257 265.278 38.5548 265.278 44.5877V59.8603H269.929L269.826 59.5983C269.26 57.8941 268.99 56.1062 269.028 54.3117" fill="white"/>
<path d="M274.556 35.4829C275.129 38.5049 275.396 41.5763 275.354 44.6513V59.8683H279.119V35.2607H274.508L274.556 35.4829Z" fill="white"/>
<path d="M277.23 26.0449C276.732 26.0496 276.246 26.2009 275.835 26.4797C275.423 26.7585 275.104 27.1524 274.917 27.6116C274.73 28.0708 274.684 28.5748 274.785 29.06C274.885 29.5452 275.128 29.9899 275.482 30.338C275.837 30.6861 276.286 30.922 276.775 31.016C277.264 31.11 277.77 31.0578 278.229 30.866C278.688 30.6743 279.08 30.3516 279.355 29.9386C279.63 29.5255 279.776 29.0407 279.775 28.5453C279.775 28.2163 279.709 27.8905 279.582 27.5866C279.456 27.2827 279.27 27.0067 279.036 26.7744C278.801 26.5421 278.523 26.3581 278.218 26.2329C277.912 26.1077 277.584 26.0438 277.254 26.0449" fill="white"/>
<path d="M302.319 35.4836C302.461 36.4416 302.461 37.4151 302.319 38.373C302.024 40.2949 301.457 42.1656 300.636 43.9296C296.687 53.09 296.304 53.8838 296.024 54.4633L295.681 55.1936C294.7 52.9868 292.682 48.4304 290.735 43.9058C288.43 38.5636 287.983 36.079 288.302 35.5789L288.486 35.2852H282.781L282.901 35.5551C282.901 35.5551 284.776 39.6749 286.706 44.0566C287.073 44.898 287.991 47.0175 289.1 49.6132C290.695 53.2488 292.642 57.7734 293.974 60.8136L294.03 60.9248H295.442L302.67 44.1122C305.127 38.3969 306.563 35.6265 306.579 35.6027L306.723 35.3249H302.271L302.319 35.4836Z" fill="white"/>
<path d="M321.584 34.2607C318.04 34.2607 314.641 35.6615 312.135 38.155C309.629 40.6485 308.221 44.0304 308.221 47.5567C308.221 51.0831 309.629 54.465 312.135 56.9585C314.641 59.452 318.04 60.8528 321.584 60.8528C328.213 60.8528 331.58 57.1775 331.612 57.1378V57.0902V57.0267C331.699 55.8836 331.612 53.7007 331.612 53.6054V52.891L331.285 53.5261C330.208 55.6058 326.251 59.4795 321.568 59.4795C316.566 59.4795 312.17 53.923 312.17 47.5726C312.17 47.5091 312.17 47.4377 312.17 47.3742H326.203C328.328 47.3579 330.443 47.0914 332.505 46.5804H332.633L332.673 46.1676C332.75 45.4931 332.785 44.8143 332.776 44.1355C332.776 38.7059 327.758 34.2924 321.608 34.2924M321.257 35.626H321.336C322.396 35.6173 323.446 35.8394 324.41 36.2768C325.375 36.7143 326.232 37.3564 326.921 38.1582C327.75 39.1562 328.359 40.3162 328.71 41.5632C329.06 42.8102 329.144 44.1165 328.955 45.3976C327.857 45.7804 326.704 45.9815 325.541 45.993H312.266C312.832 39.8807 316.494 35.626 321.217 35.626" fill="white"/>
<path d="M348.438 34.2607H348.247C346.993 34.2636 345.759 34.5667 344.648 35.1442C343.537 35.7217 342.583 36.5567 341.864 37.5787V34.7528H341.673C339.998 34.7528 337.493 34.983 337.469 34.983H337.293V35.4831L337.357 35.5466C337.357 35.5466 338.099 36.396 338.099 42.3018V59.8288H341.872V42.0875C341.893 40.6412 342.48 39.26 343.507 38.2372C344.535 37.2145 345.923 36.6308 347.377 36.6103C348.206 36.5955 349.025 36.7928 349.756 37.1834C350.487 37.574 351.104 38.1447 351.549 38.8409L351.701 39.079L351.868 38.8567C352.565 37.8314 353.068 36.6881 353.352 35.4831V35.3323L353.209 35.2688C351.697 34.6177 350.069 34.2749 348.422 34.2607" fill="white"/>
<path d="M365.559 45.1984L365.295 45.0873L365.016 44.9682C361.897 43.6267 359.647 42.6583 359.647 39.9594C359.647 37.2605 362.224 35.6253 364.641 35.6253C365.743 35.6499 366.824 35.9339 367.795 36.454C368.765 36.9742 369.598 37.7157 370.226 38.6179L370.529 39.1497L370.585 38.5464C370.643 37.5074 370.643 36.4659 370.585 35.4268V35.3078L370.481 35.2601C368.902 34.5914 367.203 34.251 365.487 34.2599C359.496 34.2599 356.265 37.4351 356.265 40.4912C356.265 43.7458 357.988 45.9129 362.033 47.7227C362.384 47.8894 362.751 48.0402 363.125 48.2069C366.317 49.5802 369.587 51.0011 369.603 54.3112C369.582 55.6344 369.041 56.8966 368.096 57.8277C367.529 58.3788 366.855 58.8094 366.116 59.0932C365.377 59.3771 364.587 59.5083 363.796 59.4788C359.161 59.4788 356.009 54.1286 355.666 53.5174L355.347 52.9459V53.5968C355.283 54.739 355.283 55.8838 355.347 57.026V57.0736C355.347 57.0736 358.004 60.8124 363.796 60.8124C366.939 60.8124 369.476 59.9313 371.127 58.2643C371.784 57.5947 372.3 56.8009 372.644 55.9297C372.988 55.0585 373.153 54.1276 373.13 53.192C373.13 48.8023 369.388 46.8416 365.559 45.1588" fill="white"/>
<path d="M379.927 26.0449C379.428 26.0449 378.941 26.1922 378.526 26.4681C378.111 26.7441 377.788 27.1364 377.598 27.5952C377.407 28.054 377.357 28.5587 377.455 29.0455C377.553 29.5323 377.794 29.9793 378.148 30.3298C378.501 30.6802 378.951 30.9185 379.44 31.0144C379.93 31.1103 380.437 31.0595 380.898 30.8684C381.358 30.6773 381.751 30.3546 382.027 29.941C382.303 29.5275 382.45 29.0418 382.448 28.5453C382.446 27.8814 382.18 27.2454 381.707 26.7767C381.235 26.308 380.595 26.0448 379.927 26.0449Z" fill="white"/>
<path d="M377.245 35.4829C377.821 38.5045 378.088 41.5762 378.043 44.6513V59.8683H381.801V35.2607H377.197L377.245 35.4829Z" fill="white"/>
<path d="M392.676 29.6084L390.594 30.4816V30.6007C390.602 31.8225 390.123 32.9977 389.262 33.8683C388.4 34.739 387.227 35.2339 385.999 35.2444H385.831L385.592 36.6097H385.815C385.815 36.6097 387.227 36.6097 388.903 36.6097V50.4614C388.903 57.677 390.442 59.7568 393.913 61.7016H393.985H394.064C394.69 61.5225 395.277 61.2291 395.795 60.8363L396.059 60.622L395.732 60.5109C395.612 60.5109 392.668 59.4392 392.668 54.2796V36.8161C393.83 36.9273 394.981 37.1371 396.107 37.4432L396.378 37.5067L396.442 37.3638C396.661 36.78 396.772 36.1613 396.769 35.5381L397.04 35.2682H392.684L392.676 29.6084Z" fill="white"/>
<path d="M417.79 35.2441L417.838 35.4743C417.99 36.4316 417.99 37.4066 417.838 38.3638C417.545 40.2852 416.981 42.1559 416.162 43.9203C412.173 53.0966 411.822 53.8825 411.543 54.4619C411.455 54.6366 411.376 54.8033 411.208 55.1843C410.227 52.9855 408.208 48.4211 406.254 43.8965C403.948 38.5543 403.502 36.0697 403.861 35.5696L404.052 35.2759H398.34L398.46 35.5458C398.46 35.5458 400.342 39.6735 402.265 44.0473C402.632 44.8411 403.541 46.9606 404.658 49.4848C406.102 52.8029 407.849 56.883 409.19 59.8994L408.216 61.995C407.545 63.361 406.596 64.5732 405.428 65.5544C404.261 66.5356 402.901 67.2644 401.435 67.6945L401.052 67.7977L401.364 68.0358C402.519 68.8737 403.808 69.5123 405.177 69.9251H405.281L405.352 69.8536C407.227 68.266 409.142 65.1623 411.049 60.7012L418.229 44.0315C420.678 38.3241 422.122 35.5537 422.13 35.522L422.281 35.2441H417.79Z" fill="white"/>
</svg>
