<svg width="46" height="42" viewBox="0 0 46 42" fill="none" xmlns="http://www.w3.org/2000/svg">
<path d="M43.6938 1.23523L43.6933 1.23481C43.1519 0.784351 42.4984 0.48913 41.8025 0.380559C41.1066 0.271989 40.3942 0.354132 39.7413 0.618246L39.7411 0.618329L2.74039 15.5569C2.74005 15.5571 2.7397 15.5572 2.73935 15.5573C2.01113 15.8572 1.39125 16.3713 0.961922 17.0316C0.532387 17.6922 0.313899 18.4677 0.335454 19.2554C0.35701 20.043 0.617592 20.8055 1.08261 21.4415C1.54757 22.0775 2.19494 22.5571 2.93879 22.8166L43.6938 1.23523ZM43.6938 1.23523C44.2323 1.68136 44.6393 2.26547 44.8714 2.9251C45.1035 3.58472 45.1518 4.29502 45.0114 4.98002L45.0113 4.98046L38.2749 38.0493C38.2748 38.0496 38.2748 38.0498 38.2747 38.0501C38.0908 38.927 37.6111 39.7141 36.9159 40.2794C36.2206 40.8448 35.3521 41.154 34.4559 41.1553C33.6018 41.1545 32.7724 40.8692 32.0984 40.3445L32.0978 40.344L23.7762 33.8977L23.5317 33.7083L23.3241 33.9375L17.7599 40.0808L17.4722 40.323C17.3653 40.3998 17.2499 40.464 17.1283 40.5144L17.1259 40.5154C17.0937 40.529 17.062 40.5455 17.0451 40.5543C17.0424 40.5557 17.0401 40.5569 17.0382 40.5579C17.0301 40.562 17.0248 40.5646 17.0215 40.5662C17.018 40.5678 17.0166 40.5684 17.0164 40.5685C16.8489 40.6251 16.6736 40.6555 16.4968 40.6586L16.4965 40.6586C16.471 40.6591 16.4495 40.6621 16.4339 40.665C16.337 40.6631 16.2404 40.6534 16.1451 40.6358L16.1144 40.6227L16.0633 40.6184C15.8812 40.571 15.7081 40.4937 15.5512 40.3896L15.5512 40.3895L15.5453 40.3857C15.5074 40.3617 15.4715 40.3352 15.4248 40.2996L15.4224 40.2978C15.2823 40.1931 15.1592 40.0674 15.0573 39.9252L14.7858 40.1198M43.6938 1.23523L2.93908 22.8167L10.4236 25.4198L10.5844 25.4757L10.6336 25.6386L14.805 39.4332C14.8051 39.4334 14.8052 39.4336 14.8052 39.4338C14.8517 39.5847 14.9186 39.7284 15.0041 39.861C15.0042 39.8611 15.0044 39.8613 15.0045 39.8614C15.0061 39.8632 15.0092 39.8666 15.013 39.8708C15.0166 39.8748 15.0208 39.8794 15.0248 39.8841C15.0339 39.8947 15.046 39.9092 15.0586 39.927L14.7858 40.1198M14.7858 40.1198C14.9076 40.2898 15.0549 40.4401 15.2224 40.5653M14.7858 40.1198C14.7779 40.1086 14.7688 40.0987 14.7597 40.0887C14.7493 40.0772 14.7388 40.0658 14.7302 40.0525C14.6248 39.8911 14.5425 39.7157 14.4858 39.5314L15.2224 40.5653M15.2224 40.5653C15.27 40.6016 15.3156 40.6356 15.3665 40.6679L15.2224 40.5653ZM16.3996 40.6727C16.398 40.6731 16.399 40.6728 16.4007 40.6724L16.3996 40.6727ZM15.0108 39.8713L15.0098 39.8698L15.0108 39.8713ZM17.5182 26.6292L17.5188 26.6287L23.0921 21.0535L22.7016 20.5211L14.3077 24.8922L14.0622 25.02L14.1423 25.2851L15.7612 30.6392L16.408 30.6098L17.0471 27.5044L17.0473 27.5037C17.1147 27.1722 17.2786 26.868 17.5182 26.6292ZM34.2193 37.6076L34.6423 37.9352L34.7509 37.4114L41.6207 4.2902L41.747 3.68127L41.1696 3.91226L4.04793 18.763L3.23805 19.087L4.05721 19.3868L11.7472 22.2009L11.8856 22.2515L12.0162 22.1835L33.0053 11.2554L33.0056 11.2552C33.3722 11.0639 33.7952 11.0103 34.198 11.1039C34.6007 11.1976 34.9566 11.4324 35.2012 11.7659C35.4458 12.0993 35.5628 12.5094 35.5312 12.9217C35.4995 13.334 35.3212 13.7213 35.0286 14.0135L35.0285 14.0137L20.4036 28.6385L20.3328 28.7093L20.3127 28.8074L19.6812 31.8766L19.4347 33.0745L20.2558 32.1682L22.0425 30.1962C22.3356 29.8734 22.7395 29.673 23.1737 29.6348C23.608 29.5966 24.0407 29.7234 24.3857 29.9899L34.2193 37.6076Z" fill="#EBEBEB" stroke="black" stroke-width="0.668"/>
</svg>
